<svg id="Layer_1" enable-background="new 0 0 512 512" height="512" viewBox="0 0 512 512" width="512" xmlns="http://www.w3.org/2000/svg"><path d="m285.208 278.031 86.174 67.138h-230.764l86.174-67.138 21.25 18.827c2.271 2.012 5.115 3.018 7.958 3.018s5.687-1.006 7.958-3.018zm-167.208-96.389v150.725l90.52-70.525zm117.076 71.663 20.924 18.539 118.525-105.013h-237.05l97.595 86.469c.002.002.004.003.006.005zm276.924-174.912v355.215c0 43.225-35.167 78.392-78.393 78.392h-355.214c-43.226 0-78.393-35.167-78.393-78.393v-355.214c0-43.226 35.167-78.393 78.393-78.393h355.215c43.225 0 78.392 35.167 78.392 78.393zm-94 97.45c0-18.203-14.36-33.012-32.011-33.012h-259.978c-17.651 0-32.011 14.809-32.011 33.012v160.313c0 18.203 14.36 33.012 32.011 33.012h259.978c17.651 0 32.011-14.809 32.011-33.012zm-24 156.523v-150.724l-90.52 80.2z"/></svg>